<svg width="25" height="26" fill="none" xmlns="http://www.w3.org/2000/svg"><path d="M17.782.691c3.734.036 7.171 3.233 7.209 7.19.012 3.512.012 7.024 0 10.536-.036 3.71-3.241 7.152-7.209 7.19-3.521.012-7.043.012-10.564 0-3.736-.036-7.171-3.232-7.209-7.19a1480.17 1480.17 0 010-10.536C.043 4.154 3.241.73 7.218.691c3.521-.012 7.043-.012 10.564 0zM7.266 2.374c-2.898.01-5.54 2.515-5.57 5.518-.01 3.505-.01 7.01 0 10.515.028 2.858 2.48 5.488 5.533 5.517 3.514.01 7.028.01 10.542 0 2.873-.027 5.504-2.472 5.532-5.517.01-3.505.01-7.01 0-10.515-.027-2.878-2.527-5.489-5.532-5.518-3.501-.01-7.003 0-10.505 0z" fill="#fff"/><path d="M12.541 7.47c2.762.027 5.337 2.245 5.842 5.088.36 2.027-.32 4.224-1.753 5.65-1.596 1.582-4.067 2.147-6.184 1.34-2.366-.901-4.03-3.498-3.92-6.13.136-3.143 2.802-5.937 5.974-5.948h.041zm-.068 1.684c-1.972.02-3.831 1.576-4.24 3.6-.416 2.046.714 4.316 2.57 5.132 2.026.892 4.644-.109 5.622-2.192 1.012-2.153.058-5.077-2.08-6.117a4.278 4.278 0 00-1.872-.423z" fill="#fff"/><path fill-rule="evenodd" clip-rule="evenodd" d="M20.26 6.491c0-.437-.167-.855-.462-1.163a1.55 1.55 0 00-1.118-.482h-.1c-.42 0-.821.174-1.117.482A1.682 1.682 0 0017 6.49v.052c0 .45.172.883.478 1.2.305.319.72.498 1.152.498.9 0 1.63-.76 1.63-1.698V6.49z" fill="#fff"/></svg>