<svg width="25" height="25" fill="none" xmlns="http://www.w3.org/2000/svg"><g clip-path="url(#clip0_1222_305)" fill="#fff"><path d="M17.389 8.168l-8.64 5.198a.36.36 0 00-.16.421l1.126 4.035a.108.108 0 00.21-.025l.248-2.785a.775.775 0 01.272-.544L17.5 8.317c.074-.074-.025-.21-.111-.149z"/><path d="M20.706-.025H4.307A4.336 4.336 0 00-.024 4.307v16.398a4.336 4.336 0 004.331 4.332h16.399a4.336 4.336 0 004.332-4.332V4.307a4.344 4.344 0 00-4.332-4.332zm.718 5.47L18.255 19.84a.663.663 0 01-1.064.371l-3.713-2.945a.661.661 0 00-.916.087l-1.906 2.202a.658.658 0 01-1.126-.222l-1.683-5.186a.669.669 0 00-.458-.433l-3.33-.879c-.606-.16-.668-1.002-.086-1.25L20.52 4.691a.668.668 0 01.904.755z"/></g><defs><clipPath id="clip0_1222_305"><path fill="#fff" d="M0 0h25v25H0z"/></clipPath></defs></svg>