<svg width="30" height="30" viewBox="0 0 30 30" fill="none" xmlns="http://www.w3.org/2000/svg">
<path d="M4.30485 15.8236C3.83194 15.2568 3.19053 14.9384 2.52172 14.9384C1.85292 14.9384 1.21151 15.2568 0.738596 15.8236C0.265681 16.3904 0 17.159 0 17.9606C0 18.7621 0.265681 19.5308 0.738596 20.0976L8.27294 29.1271C8.50761 29.4061 8.78592 29.6267 9.09191 29.7765C9.3979 29.9263 9.72555 30.0022 10.0561 30C10.3999 29.9869 10.7378 29.8893 11.0488 29.7133C11.3599 29.5372 11.6375 29.2865 11.8643 28.9766L29.4444 4.89785C29.8504 4.29386 30.0461 3.52539 29.9908 2.75268C29.9355 1.97997 29.6335 1.26266 29.1477 0.750315C28.6619 0.237968 28.0298 -0.0298689 27.3832 0.00264941C26.7367 0.0351678 26.1256 0.365532 25.6773 0.924859L10.0561 22.5957L4.30485 15.8236Z" fill="#0799EB"/>
<path d="M4.30485 15.8236C3.83194 15.2568 3.19053 14.9384 2.52172 14.9384C1.85292 14.9384 1.21151 15.2568 0.738596 15.8236C0.265681 16.3904 0 17.159 0 17.9606C0 18.7621 0.265681 19.5308 0.738596 20.0976L8.27294 29.1271C8.50761 29.4061 8.78592 29.6267 9.09191 29.7765C9.3979 29.9263 9.72555 30.0022 10.0561 30C10.3999 29.9869 10.7378 29.8893 11.0488 29.7133C11.3599 29.5372 11.6375 29.2865 11.8643 28.9766L29.4444 4.89785C29.8504 4.29386 30.0461 3.52539 29.9908 2.75268C29.9355 1.97997 29.6335 1.26266 29.1477 0.750315C28.6619 0.237968 28.0298 -0.0298689 27.3832 0.00264941C26.7367 0.0351678 26.1256 0.365532 25.6773 0.924859L10.0561 22.5957L4.30485 15.8236Z" fill="white"/>
</svg>
