<svg width="25" height="26" viewBox="0 0 25 26" fill="none" xmlns="http://www.w3.org/2000/svg">
<path d="M17.782 0.691479C21.5157 0.727098 24.9531 3.92389 24.9906 7.88114C25.0031 11.3932 25.0031 14.9052 24.9906 18.4172C24.9549 22.1269 21.7497 25.5695 17.782 25.6069C14.2607 25.6193 10.7393 25.6193 7.21804 25.6069C3.48246 25.5712 0.0468733 22.3745 0.00937467 18.4172C-0.00312489 14.9052 -0.00312489 11.3932 0.00937467 7.88114C0.043302 4.15363 3.2414 0.728879 7.21804 0.691479C10.7393 0.679012 14.2607 0.679012 17.782 0.691479ZM7.26626 2.37447C4.36815 2.38337 1.72538 4.88916 1.69681 7.89183C1.6861 11.3967 1.6861 14.9016 1.69681 18.4065C1.7236 21.2649 4.1753 23.8954 7.22876 23.9239C10.7429 23.9346 14.2571 23.9346 17.7712 23.9239C20.6444 23.8972 23.2746 21.4519 23.3032 18.4065C23.3139 14.9016 23.3139 11.3967 23.3032 7.89183C23.2764 5.01383 20.7765 2.40296 17.7712 2.37447C14.2696 2.36378 10.7679 2.37447 7.26626 2.37447Z" fill="white"/>
<path d="M12.541 7.47021C15.3032 7.49688 17.8776 9.71547 18.3829 12.558C18.7431 14.5846 18.0637 16.7819 16.6296 18.2076C15.0335 19.7898 12.5632 20.3551 10.4463 19.548C8.08023 18.6467 6.41575 16.0495 6.52672 13.4184C6.66158 10.2754 9.32815 7.48088 12.5 7.47021C12.5137 7.47021 12.5274 7.47021 12.541 7.47021ZM12.4727 9.15371C10.501 9.17326 8.64188 10.7305 8.23216 12.7536C7.81733 14.7997 8.94746 17.0699 10.8031 17.8858C12.8295 18.7783 15.4466 17.7774 16.4248 15.6939C17.4371 13.5411 16.4828 10.6168 14.3455 9.57681C13.7633 9.29415 13.1163 9.15193 12.4727 9.15371Z" fill="white"/>
<path fill-rule="evenodd" clip-rule="evenodd" d="M20.2609 6.49116C20.2609 6.05433 20.0935 5.63561 19.7978 5.3278C19.5022 5.01998 19.1 4.8457 18.6804 4.8457C18.6478 4.8457 18.613 4.8457 18.5804 4.8457C18.1609 4.8457 17.7587 5.01998 17.463 5.3278C17.1674 5.63561 17 6.05433 17 6.49116C17 6.50926 17 6.52511 17 6.54321C17 6.99362 17.1717 7.42592 17.4783 7.74279C17.7826 8.06192 18.1978 8.24072 18.6304 8.24072C19.5304 8.24072 20.2609 7.48024 20.2609 6.54321C20.2609 6.52511 20.2609 6.50926 20.2609 6.49116Z" fill="white"/>
</svg>
