<svg width="25" height="25" viewBox="0 0 25 25" fill="none" xmlns="http://www.w3.org/2000/svg">
<g clip-path="url(#clip0_1222_305)">
<path d="M17.3886 8.16828L8.74994 13.3663C8.60143 13.4529 8.53954 13.6262 8.58905 13.7871L9.71529 17.8217C9.75242 17.9331 9.91331 17.9207 9.92568 17.797L10.1732 15.0123C10.1856 14.8019 10.2846 14.6039 10.4455 14.4678L17.4999 8.31679C17.5742 8.24253 17.4752 8.1064 17.3886 8.16828Z" fill="white"/>
<path d="M20.7058 -0.0247803H4.30727C1.91865 -0.0247803 -0.0244141 1.91829 -0.0244141 4.3069V20.7054C-0.0244141 23.094 1.91865 25.0371 4.30727 25.0371H20.7058C23.0944 25.0371 25.0375 23.094 25.0375 20.7054V4.3069C25.0375 1.91829 23.082 -0.0247803 20.7058 -0.0247803ZM21.4236 5.44552L18.2553 19.8391C18.1439 20.3218 17.5746 20.5198 17.1909 20.2104L13.4781 17.2648C13.2058 17.042 12.7974 17.0792 12.5622 17.3515L10.6563 19.5544C10.3221 19.9505 9.67855 19.8143 9.53004 19.3317L7.84687 14.146C7.77261 13.9356 7.59934 13.7623 7.38895 13.7128L4.05974 12.8341C3.45331 12.6732 3.39143 11.8317 3.97311 11.5841L20.5201 4.69056C21.0152 4.49254 21.535 4.92571 21.4236 5.44552Z" fill="white"/>
</g>
<defs>
<clipPath id="clip0_1222_305">
<rect width="25" height="25" fill="white"/>
</clipPath>
</defs>
</svg>
