<svg width="30" height="30" fill="none" xmlns="http://www.w3.org/2000/svg"><path d="M4.305 15.824c-.473-.567-1.114-.886-1.783-.886-.67 0-1.31.319-1.783.886C.266 16.39 0 17.159 0 17.96c0 .801.266 1.57.739 2.137l7.534 9.03c.235.278.513.499.819.648.306.15.634.226.964.224a2.18 2.18 0 00.993-.287c.31-.176.588-.427.815-.736l17.58-24.08c.406-.603.602-1.372.547-2.144-.055-.773-.357-1.49-.843-2.003-.486-.512-1.118-.78-1.765-.747-.646.032-1.257.363-1.706.922l-15.62 21.67-5.752-6.771z" fill="#0799EB"/><path d="M4.305 15.824c-.473-.567-1.114-.886-1.783-.886-.67 0-1.31.319-1.783.886C.266 16.39 0 17.159 0 17.96c0 .801.266 1.57.739 2.137l7.534 9.03c.235.278.513.499.819.648.306.15.634.226.964.224a2.18 2.18 0 00.993-.287c.31-.176.588-.427.815-.736l17.58-24.08c.406-.603.602-1.372.547-2.144-.055-.773-.357-1.49-.843-2.003-.486-.512-1.118-.78-1.765-.747-.646.032-1.257.363-1.706.922l-15.62 21.67-5.752-6.771z" fill="#fff"/></svg>